<?xml version="1.0" encoding="UTF-8"?>
<svg width="541px" height="397px" viewBox="0 0 541 397" version="1.1" xmlns="http://www.w3.org/2000/svg" xmlns:xlink="http://www.w3.org/1999/xlink">
    <!-- Generator: Sketch 41 (35326) - http://www.bohemiancoding.com/sketch -->
    <title>CarImage</title>
    <desc>Created with Sketch.</desc>
    <defs>
        <rect id="path-1" x="29.7145359" y="309.643935" width="2.41681261" height="51.9295339"></rect>
        <mask id="mask-2" maskContentUnits="userSpaceOnUse" maskUnits="objectBoundingBox" x="0" y="0" width="2.41681261" height="51.9295339" fill="white">
            <use xlink:href="#path-1"></use>
        </mask>
        <rect id="path-3" x="10.380035" y="234.164961" width="62.8371278" height="35.0222438" rx="4"></rect>
        <mask id="mask-4" maskContentUnits="userSpaceOnUse" maskUnits="objectBoundingBox" x="0" y="0" width="62.8371278" height="35.0222438" fill="white">
            <use xlink:href="#path-3"></use>
        </mask>
        <path d="M190.928196,231.871407 L96.6725044,231.871407 C96.6725044,218.531924 85.8520658,207.718136 72.5043783,207.718136 C59.1566908,207.718136 48.3362522,218.531924 48.3362522,231.871407 L0,231.871407 L0,214.964117 L7.43234845,214.964117 C7.43234845,214.964117 6.99422002,193.047891 6.99422002,169.110241 C6.99422002,147.800641 12.9218093,125.806963 24.7112164,119.558694 C39.3035474,119.558694 112.381786,119.558694 112.381786,119.558694 L112.381786,117.30574 C112.381786,114.548167 114.613303,112.312713 117.382486,112.312713 L189.731793,112.312713 C193.062086,112.312713 195.761821,115.011575 195.761821,118.360142 L195.761821,119.558694 L264.850126,119.558694 L288.713264,167.865238 L290.060685,167.865238 C293.373764,167.865238 296.059545,170.557101 296.059545,173.864284 L296.059545,176.358154 C296.059545,179.671336 293.380349,182.357201 290.055502,182.357201 L288.809107,182.357201 L288.809107,214.964117 L296.059545,214.964117 L296.059545,231.871407 L239.264448,231.871407 C239.264448,218.531924 228.44401,207.718136 215.096322,207.718136 C201.748635,207.718136 190.928196,218.531924 190.928196,231.871407 Z M72.5043783,253.609352 C84.517297,253.609352 94.2556918,243.876943 94.2556918,231.871407 C94.2556918,219.865872 84.517297,210.133463 72.5043783,210.133463 C60.4914596,210.133463 50.7530648,219.865872 50.7530648,231.871407 C50.7530648,243.876943 60.4914596,253.609352 72.5043783,253.609352 Z M72.5043783,242.74038 C78.5108376,242.74038 83.380035,237.874175 83.380035,231.871407 C83.380035,225.86864 78.5108376,221.002435 72.5043783,221.002435 C66.4979189,221.002435 61.6287215,225.86864 61.6287215,231.871407 C61.6287215,237.874175 66.4979189,242.74038 72.5043783,242.74038 Z M215.096322,253.609352 C227.109241,253.609352 236.847636,243.876943 236.847636,231.871407 C236.847636,219.865872 227.109241,210.133463 215.096322,210.133463 C203.083404,210.133463 193.345009,219.865872 193.345009,231.871407 C193.345009,243.876943 203.083404,253.609352 215.096322,253.609352 Z M215.096322,242.74038 C221.102782,242.74038 225.971979,237.874175 225.971979,231.871407 C225.971979,225.86864 221.102782,221.002435 215.096322,221.002435 C209.089863,221.002435 204.220665,225.86864 204.220665,231.871407 C204.220665,237.874175 209.089863,242.74038 215.096322,242.74038 Z" id="path-5"></path>
        <mask id="mask-6" maskContentUnits="userSpaceOnUse" maskUnits="objectBoundingBox" x="0" y="0" width="296.059545" height="141.296639" fill="white">
            <use xlink:href="#path-5"></use>
        </mask>
        <linearGradient x1="5.3725437%" y1="86.0192295%" x2="95.5493839%" y2="17.2585738%" id="linearGradient-7">
            <stop stop-color="#FFD19B" offset="0%"></stop>
            <stop stop-color="#FFFFFF" offset="34.0521365%"></stop>
            <stop stop-color="#FFE2C5" offset="64.2757494%"></stop>
            <stop stop-color="#FFD1A7" offset="100%"></stop>
        </linearGradient>
        <path d="M55.7492329,126.804676 L114.431828,126.804676 C116.636543,126.804676 118.423818,128.594191 118.423818,130.813306 L118.423818,154.195299 C118.423818,156.409204 116.62596,158.203929 114.428646,158.203929 L41.0858144,158.203929 L55.7492329,126.804676 Z" id="path-8"></path>
        <mask id="mask-9" maskContentUnits="userSpaceOnUse" maskUnits="objectBoundingBox" x="0" y="0" width="77.3380035" height="31.3992531" fill="white">
            <use xlink:href="#path-8"></use>
        </mask>
        <rect id="path-10" x="129.299475" y="126.804676" width="74.9211909" height="30.1915895" rx="4"></rect>
        <mask id="mask-11" maskContentUnits="userSpaceOnUse" maskUnits="objectBoundingBox" x="0" y="0" width="74.9211909" height="30.1915895" fill="white">
            <use xlink:href="#path-10"></use>
        </mask>
        <path d="M215.096322,130.813886 C215.096322,128.59966 216.891111,126.804676 219.087971,126.804676 L258.141351,126.804676 L271.891419,156.996265 L219.090043,156.996265 C216.884372,156.996265 215.096322,155.19806 215.096322,152.987055 L215.096322,130.813886 Z" id="path-12"></path>
        <mask id="mask-13" maskContentUnits="userSpaceOnUse" maskUnits="objectBoundingBox" x="0" y="0" width="56.7950963" height="30.1915895" fill="white">
            <use xlink:href="#path-12"></use>
        </mask>
        <rect id="path-14" x="21.7513135" y="202.887481" width="7.25043783" height="7.24598148"></rect>
        <mask id="mask-15" maskContentUnits="userSpaceOnUse" maskUnits="objectBoundingBox" x="0" y="0" width="7.25043783" height="7.24598148" fill="white">
            <use xlink:href="#path-14"></use>
        </mask>
        <rect id="path-16" x="27.793345" y="216.171781" width="7.25043783" height="7.24598148"></rect>
        <mask id="mask-17" maskContentUnits="userSpaceOnUse" maskUnits="objectBoundingBox" x="0" y="0" width="7.25043783" height="7.24598148" fill="white">
            <use xlink:href="#path-16"></use>
        </mask>
    </defs>
    <g id="Page-1" stroke="none" stroke-width="1" fill="none" fill-rule="evenodd">
        <g id="white" transform="translate(-103.000000, -614.000000)">
            <g id="Group-8" transform="translate(30.000000, 331.000000)">
                <g id="CarImage" transform="translate(73.000000, 283.000000)">
                    <rect id="Rectangle-20" fill="#FFAC61" x="70.8003503" y="246.845429" width="2.41681261" height="112.312713"></rect>
                    <path d="M154.851025,361.573469 C157.521523,355.891771 159.014011,349.547415 159.014011,342.854683 C159.014011,318.510126 139.26671,298.774963 114.90718,298.774963 C93.2283915,298.774963 75.2025475,314.405466 71.4976438,335.005033 C71.4666264,335.004925 71.4355963,335.00487 71.4045534,335.00487 C57.0557894,335.00487 45.4238179,346.629692 45.4238179,360.969637 C45.4238179,361.171461 45.426122,361.372746 45.4307053,361.573469 L154.851035,361.573469 Z" id="Combined-Shape" stroke="#FFAC61" stroke-width="2" fill="#FFD1A7"></path>
                    <path d="M429.159256,361.573469 C431.829754,355.891771 433.322242,349.547415 433.322242,342.854683 C433.322242,318.510126 413.574941,298.774963 389.215412,298.774963 C367.536623,298.774963 349.510779,314.405466 345.805875,335.005033 C345.774858,335.004925 345.743827,335.00487 345.712785,335.00487 C331.364021,335.00487 319.732049,346.629692 319.732049,360.969637 C319.732049,361.171461 319.734353,361.372746 319.738936,361.573469 L429.159266,361.573469 Z" id="Combined-Shape-Copy" stroke="#FFAC61" stroke-width="2" fill="#FFD1A7" transform="translate(376.527145, 330.174216) scale(-1, 1) translate(-376.527145, -330.174216) "></path>
                    <path d="M0.343718508,361.573469 L8.42579574,361.573469 M16.6912664,361.573469 L524.08489,361.573469 M526.549149,361.573469 L540.410669,361.573469" id="Path-2" stroke="#FFAC61" stroke-width="2"></path>
                    <path d="M51.4887953,395.949759 L110.870536,395.949759 C111.585155,393.051581 114.203419,390.902256 117.323993,390.902256 C120.444567,390.902256 123.062831,393.051581 123.77745,395.949759 L138.44367,395.949759 M140.66858,395.949759 L144.593588,395.949759 M148.770357,395.949759 L319.219742,395.949759" id="Combined-Shape" stroke="#FFAC61" stroke-width="2"></path>
                    <path d="M285.534213,379.01104 L318.662487,379.01104 M330.140836,379.01104 L408.171438,379.01104" id="Path-3" stroke="#FFAC61" stroke-width="2"></path>
                    <path d="M30.3187391,341.043188 C41.9979656,341.043188 51.4658494,331.581124 51.4658494,319.909075 C51.4658494,308.237027 41.9979656,277.037018 30.3187391,277.037018 C18.6395125,277.037018 9.17162872,308.237027 9.17162872,319.909075 C9.17162872,331.581124 18.6395125,341.043188 30.3187391,341.043188 Z" id="Oval-6-Copy" stroke="#FF983B" stroke-width="2" fill="#FFD1A7"></path>
                    <use id="Rectangle-18-Copy" stroke="#FFAC61" mask="url(#mask-2)" stroke-width="2" xlink:href="#path-1"></use>
                    <g id="Group-7" transform="translate(475.616462, 277.037018)">
                        <path d="M21.1471103,64.0061697 C32.8263369,64.0061697 42.2942207,54.5441052 42.2942207,42.8720571 C42.2942207,31.200009 32.8263369,-3.64362592e-13 21.1471103,-3.64362592e-13 C9.46788379,-3.64362592e-13 2.28366574e-13,31.200009 2.28366574e-13,42.8720571 C2.28366574e-13,54.5441052 9.46788379,64.0061697 21.1471103,64.0061697 Z" id="Oval-6" stroke="#FF983B" stroke-width="2" fill="#FFD1A7"></path>
                        <rect id="Rectangle-18" fill="#FF983B" x="20.5429072" y="32.6069167" width="2.41681261" height="51.9295339"></rect>
                        <path d="M21.7513135,50.8654061 L31.0977823,39.8528981" id="Path-4" stroke="#FF983B" stroke-width="2"></path>
                    </g>
                    <path d="M32.1313485,327.902424 L41.4778173,316.889917" id="Path-4-Copy" stroke="#FFAC61" stroke-width="2"></path>
                    <use id="Rectangle-19" stroke="#FFAC61" mask="url(#mask-4)" stroke-width="4" fill="#FFD1A7" xlink:href="#path-3"></use>
                    <text id="bus" font-family="PingFangSC-Regular, PingFang SC" font-size="20" font-weight="normal" fill="#FFFFFF">
                        <tspan x="25.2885989" y="254.56113">bus</tspan>
                    </text>
                    <g id="Group-5" transform="translate(82.884413, 93.472154)">
                        <path d="M317.691879,265.685988 C317.691879,265.685988 414.483363,152.505324 414.483363,98.2457143 C414.483363,43.9861046 370.390075,0 315.998249,0 C261.606422,0 217.513135,43.9861046 217.513135,98.2457143 C217.513135,152.505324 317.691879,265.685988 317.691879,265.685988 Z M316.602452,127.779702 C333.287061,127.779702 346.812609,114.287032 346.812609,97.6429798 C346.812609,80.9989278 333.287061,67.5062577 316.602452,67.5062577 C299.917842,67.5062577 286.392294,80.9989278 286.392294,97.6429798 C286.392294,114.287032 299.917842,127.779702 316.602452,127.779702 Z" id="Combined-Shape" stroke="#FF983B" stroke-width="3" fill="#FFD1A7"></path>
                        <g id="Group-6" transform="translate(0.000000, 12.076636)">
                            <path d="M309.956217,-1.72893895e-05 C308.19961,-1.72893895e-05 306.456681,0.0584045559 304.729276,0.173406751 M299.702938,0.672037226 C261.837092,5.67557355 232.618214,38.0088596 232.618214,77.1499915" id="Oval" stroke="#FFFFFF" stroke-width="3" stroke-linecap="round"></path>
                            <use id="Combined-Shape" stroke="#FF983B" mask="url(#mask-6)" stroke-width="4" fill="#FFD1A7" xlink:href="#path-5"></use>
                            <rect id="Rectangle-9" fill="#FF983B" x="16.9176883" y="152.165611" width="19.3345009" height="6.0383179"></rect>
                            <rect id="Rectangle-9-Copy" fill="#FF983B" x="21.7513135" y="143.711966" width="14.5008757" height="6.0383179"></rect>
                            <rect id="Rectangle-9-Copy-2" fill="#FF983B" x="26.5849387" y="136.465985" width="9.66725044" height="4.83065432"></rect>
                            <rect id="Rectangle-9-Copy-3" fill="#FF983B" x="31.4185639" y="129.220003" width="4.83362522" height="4.83065432"></rect>
                            <use id="Rectangle-12" stroke="#FF983B" mask="url(#mask-9)" stroke-width="4" fill="url(#linearGradient-7)" xlink:href="#path-8"></use>
                            <use id="Rectangle-13" stroke="#FF983B" mask="url(#mask-11)" stroke-width="4" fill="url(#linearGradient-7)" xlink:href="#path-10"></use>
                            <rect id="Rectangle-8" fill="#FF983B" x="8.45884413" y="167.865238" width="279.141856" height="2.41532716"></rect>
                            <use id="Rectangle-13-Copy" stroke="#FF983B" mask="url(#mask-13)" stroke-width="4" fill="url(#linearGradient-7)" xlink:href="#path-12"></use>
                            <rect id="Rectangle-10" fill="#FF983B" x="212.67951" y="169.072901" width="4.83362522" height="37.437571"></rect>
                            <rect id="Rectangle-11" fill="#FF983B" x="153.467601" y="176.318883" width="50.7530648" height="6.0383179"></rect>
                            <rect id="Rectangle-11-Copy" fill="#FF983B" x="221.138354" y="176.318883" width="9.66725044" height="6.0383179"></rect>
                            <use id="Rectangle-14" stroke="#FF983B" mask="url(#mask-15)" stroke-width="4" fill="#D2FFFF" xlink:href="#path-14"></use>
                            <use id="Rectangle-14-Copy" stroke="#FF983B" mask="url(#mask-17)" stroke-width="4" fill="#D2FFFF" xlink:href="#path-16"></use>
                            <rect id="Rectangle-15" fill="#FF983B" x="113.590193" y="119.558694" width="80.9632224" height="2.41532716"></rect>
                            <path d="M90.2818086,207.274512 C85.4875161,203.041222 79.1874134,200.472154 72.2869037,200.472154 C64.833915,200.472154 58.0813235,203.469068 53.1698774,208.322847" id="Oval-4" stroke="#FF9A3D" stroke-width="2"></path>
                        </g>
                    </g>
                    <polyline id="Path-5" stroke="#FFAE64" stroke-width="2" points="24.8809107 140.78157 31.364319 134.302147 38.7979805 141.731239 47.2093374 133.325052 56.0628249 142.173098"></polyline>
                    <polyline id="Path-5-Copy" stroke="#FFAE64" stroke-width="2" points="185.598949 75.8051495 189.138613 72.2676616 193.197074 76.3236281 197.789315 71.7342098 202.62294 76.5648641"></polyline>
                    <path d="M123.970228,158.685988 L170.664409,158.685988 M175.382116,158.685988 L179.684405,158.685988" id="Path-6" stroke="#FFAC61" stroke-width="2"></path>
                    <path d="M299.189142,88.6414999 L337.424479,88.6414999 M342.142186,88.6414999 L346.444475,88.6414999" id="Path-6-Copy-2" stroke="#FFAC61" stroke-width="2"></path>
                    <path d="M185.978297,150.232343 L200.874567,150.232343 M202.895985,150.232343 L207.198275,150.232343" id="Path-6-Copy" stroke="#FFAC61" stroke-width="2"></path>
                    <path d="M86.541223,51.203929 L85.1542597,51.203929 L85.1542597,57.6863453 L73.3155623,57.6863453 L73.3155623,67.7199608 L62.7811635,67.7199608 L62.7811635,76.6153808 L41.7985989,76.6153808 L41.7985989,74.2000536 L60.3643509,74.2000536 L60.3643509,65.3046336 L70.8987497,65.3046336 L70.8987497,55.2710182 L82.7374471,55.2710182 L82.7374471,48.7886018 L86.541223,48.7886018 L90.344999,48.7886018 L90.344999,55.2710182 L102.183696,55.2710182 L102.183696,65.3046336 L112.718095,65.3046336 L112.718095,74.2000536 L131.283847,74.2000536 L131.283847,76.6153808 L110.301283,76.6153808 L110.301283,67.7199608 L99.7668838,67.7199608 L99.7668838,57.6863453 L87.9281864,57.6863453 L87.9281864,51.203929 L86.541223,51.203929 Z" id="Combined-Shape" fill="#FFB16B"></path>
                    <path d="M407.9773,2.89738577 L406.590337,2.89738577 L406.590337,9.37980215 L394.751639,9.37980215 L394.751639,19.4134176 L384.217241,19.4134176 L384.217241,28.3088376 L363.234676,28.3088376 L363.234676,25.8935104 L381.800428,25.8935104 L381.800428,16.9980905 L392.334827,16.9980905 L392.334827,6.96447499 L404.173524,6.96447499 L404.173524,0.482058607 L407.9773,0.482058607 L411.781076,0.482058607 L411.781076,6.96447499 L423.619773,6.96447499 L423.619773,16.9980905 L434.154172,16.9980905 L434.154172,25.8935104 L452.719924,25.8935104 L452.719924,28.3088376 L431.73736,28.3088376 L431.73736,19.4134176 L421.202961,19.4134176 L421.202961,9.37980215 L409.364263,9.37980215 L409.364263,2.89738577 L407.9773,2.89738577 Z" id="Combined-Shape-Copy-2" fill="#FFB16B"></path>
                    <rect id="Rectangle-21" fill="#FF983B" x="309" y="279" width="4.83362522" height="12.0766358"></rect>
                </g>
            </g>
        </g>
    </g>
</svg>